# xmcd
#
# Track frame offsets: 
#        182
#        10675
#        21097
#        34225
#        45050
#        55962
#        70370
#        83540
#        97372
#        111282
#        124342
#        135305
#        147305
#        159402
#        171755
#        183367
#        194072
#        204470
#        216805
#        229045
#        240130
#        251535
#        264570
#        275915
#        288332
#        298835
#
# Disc length: 4125 seconds
#
# Revision: 11
# Processed by: cddbd v1.5.2PL0 Copyright (c) Steve Scherf et al.
# Submitted via: ExactAudioCopyFreeDBPlugin 1.0
#
DISCID=7f101b1a
DTITLE=Various Artist - The Doo Wop Boxes I, II, and III [Rhino box set
DTITLE=s]
DYEAR=1993
DGENRE=Rhythm and Blues
TTITLE0=The Cadillacs - Speedo
TTITLE1=Frankie Lymon and The Teenagers - Why Do Fools Fall in Love
TTITLE2=The Flamingos - I'll Be Home
TTITLE3=The Clovers - Devil or Angel
TTITLE4=The Willows - Church Bells May Ring
TTITLE5=The Cleftones - Little Girl of Mine
TTITLE6=Frankie Lymon and The Teenagers - I Want You to Be My Girl
TTITLE7=The Five Satins - In the Still of the Nite
TTITLE8=The Channels - The Closer You Are
TTITLE9=The Dells - Oh What a Nite
TTITLE10=The Heartbeats - A Thousand Miles Away
TTITLE11=The Schoolboys - Please Say You Want Me
TTITLE12=The Dell Vikings - Come Go with Me
TTITLE13=Lewis Lymon and The Teenchords - I'm So Happy (Tra-La-La-La-La-
TTITLE13=La)
TTITLE14=The Solitaires - Walking Along
TTITLE15=The Gladiolas - Little Darlin'
TTITLE16=The Dubs - Don't Ask Me to Be Lonely
TTITLE17=The Paragons - Florence
TTITLE18=The Charts - Deserie
TTITLE19=The Dell Vikings - Whispering Bells
TTITLE20=The Mello-Kings - Tonite, Tonite
TTITLE21=Lee Andrews and The Hearts - Long Lonely Nights
TTITLE22=The Shells - Baby Oh Baby
TTITLE23=Norman Fox and The Rob-Roys - Tell Me Why
TTITLE24=The Hollywood Flames - Buzz-Buzz-Buzz
TTITLE25=Lee Andrews and The Hearts - Tear Drops
EXTD=YEAR: 1994
EXTT0=
EXTT1=
EXTT2=
EXTT3=
EXTT4=
EXTT5=
EXTT6=
EXTT7=
EXTT8=
EXTT9=
EXTT10=
EXTT11=
EXTT12=
EXTT13=
EXTT14=
EXTT15=
EXTT16=
EXTT17=
EXTT18=
EXTT19=
EXTT20=
EXTT21=
EXTT22=
EXTT23=
EXTT24=
EXTT25=
PLAYORDER=
